<?xml version="1.0" encoding="UTF-8"?>
<!-- Generator: Adobe Illustrator 16.0.0, SVG Export Plug-In . SVG Version: 6.00 Build 0)  -->
<svg xmlns="http://www.w3.org/2000/svg" xmlns:xlink="http://www.w3.org/1999/xlink" version="1.1" id="Layer_1" x="0px" y="0px" width="280.762px" height="233.059px" viewBox="0 0 280.762 233.059" xml:space="preserve">
<g>
	<g>
		<circle fill="#29C2E4" cx="10.569" cy="222.489" r="10.57"></circle>
		<circle fill="#29C2E4" cx="10.569" cy="116.531" r="10.57"></circle>
		<circle fill="#29C2E4" cx="10.569" cy="10.572" r="10.572"></circle>
	</g>
	<g>
		<circle fill="#29C2E4" cx="97.109" cy="222.489" r="10.57"></circle>
		<circle fill="#29C2E4" cx="97.109" cy="116.531" r="10.57"></circle>
		<circle fill="#29C2E4" cx="97.109" cy="10.572" r="10.572"></circle>
	</g>
	<g>
		<path fill="#29C2E4" d="M183.651,211.918c5.836,0,10.568,4.732,10.568,10.568c0,5.837-4.732,10.572-10.568,10.572    c-5.84,0-10.572-4.735-10.572-10.572C173.079,216.651,177.812,211.918,183.651,211.918z"></path>
		<path fill="#29C2E4" d="M183.651,105.961c5.836,0,10.568,4.732,10.568,10.569c0,5.84-4.732,10.572-10.568,10.572    c-5.84,0-10.572-4.732-10.572-10.572C173.079,110.693,177.812,105.961,183.651,105.961z"></path>
		<path fill="#29C2E4" d="M183.651,0c5.836,0,10.568,4.736,10.568,10.572s-4.732,10.572-10.568,10.572    c-5.84,0-10.572-4.735-10.572-10.572S177.812,0,183.651,0z"></path>
	</g>
	<g>
		<path fill="#29C2E4" d="M270.189,211.918c5.84,0,10.572,4.732,10.572,10.568c0,5.837-4.732,10.572-10.572,10.572    c-5.836,0-10.571-4.735-10.571-10.572C259.618,216.651,264.354,211.918,270.189,211.918z"></path>
		<path fill="#29C2E4" d="M270.189,105.961c5.84,0,10.572,4.732,10.572,10.569c0,5.84-4.732,10.572-10.572,10.572    c-5.836,0-10.571-4.732-10.571-10.572C259.618,110.693,264.354,105.961,270.189,105.961z"></path>
		<path fill="#29C2E4" d="M270.189,0c5.84,0,10.572,4.736,10.572,10.572s-4.732,10.572-10.572,10.572    c-5.836,0-10.571-4.735-10.571-10.572S264.354,0,270.189,0z"></path>
	</g>
</g>
</svg>
