<?xml version="1.0" encoding="UTF-8"?>
<!-- Generator: Adobe Illustrator 16.0.0, SVG Export Plug-In . SVG Version: 6.00 Build 0)  -->
<svg xmlns="http://www.w3.org/2000/svg" xmlns:xlink="http://www.w3.org/1999/xlink" version="1.1" id="Layer_1" x="0px" y="0px" width="555.013px" height="612.392px" viewBox="0 0 555.013 612.392" xml:space="preserve">
<g>
	<g>
		<path fill="#CFDBEA" d="M454.124,229.934c-0.537-3.586,1.002-6.988,2.629-10.591c1.586-3.504,3.227-7.128,3.33-11.411    c0.939-38.84-8.646-84.053-29.031-116.416C399.522,41.47,334.579,11.94,279.827,3.364C230.505-4.36,177.879,1.038,131.761,21.418    C107.267,32.241,84.762,48.826,65.144,67.49c-38.011,36.152-63.045,89.438-65.02,141.169    c-2.493,65.259,33.143,116.485,60.075,171.278c15.995,32.543,28.12,71.423,27.656,109.906    c-0.244,20.403-11.069,65.223-16.931,89.896c0,0,233.86,0.058,233.883,0c9.843-23.694,20.69-64.272,25.737-71.121    c9.135-12.396,25.934-9.428,45.389-5.994c20.043,3.541,42.744,7.551,59.262-7.154c10.654-9.488,8.326-32.463,6.936-46.189    c-0.387-3.827-0.75-7.438-0.559-8.591c0.969-5.848,4.211-10.761,7.346-15.519c4.459-6.759,8.234-6.784,5.375-15.789    c-1.322-4.163-2.777-6.945-3.969-8.745c5.035-2.57,14.92-8.454,17.318-15.995c1.51-4.754-0.418-10.536-2.457-16.662    c-2.229-6.699-4.531-13.616-1.479-17.579c0.605-0.642,3.951-0.91,6.393-1.105c8.104-0.655,21.658-1.743,26.396-17.04    c5.416-17.489-16.873-41.811-28.637-65.608C461.829,254.452,454.78,234.259,454.124,229.934z M304.536,281.447    c14.627,14.627,14.627,35.106,20.48,52.66C319.163,316.554,319.163,296.074,304.536,281.447z"></path>
		<g>
			<g>
				<g>
					<g>
						<path fill="#FFFFFF" d="M380.368,352.727c-44.377-11.427-89.352-1.218-102.854,5.766        c-16.459,8.512-26.452,25.224-34.398,22.574c-6.074-2.025,6.138-21.065,17.541-29.692        c15.148-11.452,37.765-18.897,62.718-22.793c-4.043-15.023-5.518-31.438-16.176-44.208        c-31.658,11.021-70.822,28.039-88.77,67.261c-12.621,27.573-13.425,141.5-9.067,228.105h34.268        c0.516-39.294,1.271-90.99,0.456-100.777c-1.215-14.575-5.581-29.133-7.936-44.471c-0.742-4.839,0.892-13.649,4.452-11.691        c3.561,1.957,6.407,32.976,26.412,33.65c11.657,0.392-12.981-25.177-9.013-33.157c0.83-1.663,11.456,13.028,9.281,5.134        c-0.353-1.278-5.894-9.898-4.156-16.009c5.974-21.053,69.51-31.255,110.918-31.088c22.092,0.087,30.254,6.115,30.188,11.002        c-0.186,13.645-32.242,5.348-32.242,23.358c0,8.888,18.072,8.808,27.674,7.603c8.285-1.039,21.803-11.338,23.355-29.435        C423.944,383.096,420.312,363.015,380.368,352.727z"></path>
						<path fill="#FFFFFF" d="M433.212,251.571c-12.775-6.724-88.074,18.823-116.986,29.581c-2.713,1.009-5.746,2.08-9.025,3.221        c10.658,12.77,12.133,29.185,16.176,44.208c32.127-5.013,68.129-4.139,97.061,1.651c15.947,3.19,47.738,14.117,58.492,2.018        C489.687,320.147,445.985,258.292,433.212,251.571z"></path>
					</g>
				</g>
			</g>
		</g>
		<path fill="#FFFFFF" d="M174.095,209.33c-24.939-1.299-38.778,17.182-39.986,34.63c-1.806,26.116,13.622,41.135,20.694,52.313    c8.019,12.681,4.293,33.826,16.988,44.168c12.778,10.406,31.001,3.57,33.797-10.531l0.959-86.885    C205.26,224.764,189.945,210.159,174.095,209.33z"></path>
	</g>
	<g>
		<path fill="#29C2E4" d="M169.137,201.781c-20.169,0-36.58,16.411-36.58,36.581c0,20.171,16.411,36.582,36.58,36.582    c20.17,0,36.582-16.411,36.582-36.582C205.718,218.192,189.307,201.781,169.137,201.781z"></path>
		<path fill="#29C2E4" d="M169.137,148.64c-49.471,0-89.721,40.25-89.721,89.723c0,49.474,40.25,89.724,89.721,89.724    c49.474,0,89.723-40.25,89.723-89.724C258.86,188.89,218.61,148.64,169.137,148.64z M169.137,323.343    c-46.857,0-84.978-38.124-84.978-84.98c0-46.858,38.121-84.979,84.978-84.979c46.858,0,84.979,38.121,84.979,84.979    C254.116,285.219,215.995,323.343,169.137,323.343z"></path>
		<path fill="#29C2E4" d="M169.137,173.597c-35.71,0-64.764,29.054-64.764,64.766s29.053,64.767,64.764,64.767    c35.712,0,64.766-29.055,64.766-64.767S204.849,173.597,169.137,173.597z M169.137,298.385c-33.095,0-60.02-26.927-60.02-60.022    c0-33.095,26.925-60.021,60.02-60.021c33.097,0,60.022,26.927,60.022,60.021C229.159,271.458,202.234,298.385,169.137,298.385z"></path>
	</g>
	<g>
		<path fill="#29C2E4" d="M465.29,277.935c-20.17,0-36.582,16.411-36.582,36.58c0,20.17,16.412,36.581,36.582,36.581    s36.58-16.411,36.58-36.581C501.87,294.346,485.46,277.935,465.29,277.935z"></path>
		<path fill="#29C2E4" d="M465.29,224.793c-49.473,0-89.723,40.25-89.723,89.722c0,49.476,40.25,89.726,89.723,89.726    s89.723-40.25,89.723-89.726C555.013,265.043,514.763,224.793,465.29,224.793z M465.29,399.496    c-46.859,0-84.979-38.123-84.979-84.981c0-46.856,38.119-84.977,84.979-84.977c46.855,0,84.977,38.12,84.977,84.977    C550.267,361.373,512.146,399.496,465.29,399.496z"></path>
		<path fill="#29C2E4" d="M465.29,249.751c-35.713,0-64.766,29.053-64.766,64.764c0,35.712,29.053,64.766,64.766,64.766    c35.711,0,64.764-29.054,64.764-64.766C530.054,278.804,501.001,249.751,465.29,249.751z M465.29,374.536    c-33.098,0-60.021-26.924-60.021-60.021c0-33.096,26.924-60.021,60.021-60.021c33.096,0,60.02,26.925,60.02,60.021    C525.31,347.612,498.386,374.536,465.29,374.536z"></path>
	</g>
	<g>
		<path fill="#29C2E4" d="M224.138,486.087c-20.171,0-36.582,16.411-36.582,36.581c0,20.171,16.411,36.581,36.582,36.581    c20.169,0,36.58-16.41,36.58-36.581C260.718,502.498,244.307,486.087,224.138,486.087z"></path>
		<path fill="#29C2E4" d="M224.138,432.945c-49.474,0-89.723,40.249-89.723,89.723s40.25,89.724,89.723,89.724    c49.472,0,89.72-40.25,89.72-89.724S273.61,432.945,224.138,432.945z M224.138,607.647c-46.858,0-84.979-38.123-84.979-84.979    c0-46.859,38.121-84.979,84.979-84.979c46.856,0,84.978,38.12,84.978,84.979C309.116,569.524,270.995,607.647,224.138,607.647z"></path>
		<path fill="#29C2E4" d="M224.138,457.902c-35.712,0-64.766,29.054-64.766,64.766s29.054,64.766,64.766,64.766    c35.71,0,64.763-29.054,64.763-64.766S259.849,457.902,224.138,457.902z M224.138,582.689c-33.098,0-60.022-26.927-60.022-60.021    c0-33.098,26.924-60.021,60.022-60.021c33.095,0,60.02,26.924,60.02,60.021C284.158,555.763,257.233,582.689,224.138,582.689z"></path>
	</g>
</g>
</svg>
