<svg width="24" height="24" viewBox="0 0 24 24" fill="none" xmlns="http://www.w3.org/2000/svg">
<path d="M4 10.5C3.72386 10.5 3.5 10.7239 3.5 11C3.5 11.2761 3.72386 11.5 4 11.5V10.5ZM15.5 3C15.5 2.72386 15.2761 2.5 15 2.5C14.7239 2.5 14.5 2.72386 14.5 3H15.5ZM14.5 7C14.5 7.27614 14.7239 7.5 15 7.5C15.2761 7.5 15.5 7.27614 15.5 7H14.5ZM9.5 3C9.5 2.72386 9.27614 2.5 9 2.5C8.72386 2.5 8.5 2.72386 8.5 3H9.5ZM8.5 7C8.5 7.27614 8.72386 7.5 9 7.5C9.27614 7.5 9.5 7.27614 9.5 7H8.5ZM20 10.5H4V11.5H20V10.5ZM4.5 19V7H3.5V19H4.5ZM6 20.5C5.17157 20.5 4.5 19.8284 4.5 19H3.5C3.5 20.3807 4.61929 21.5 6 21.5V20.5ZM6 4.5C4.61929 4.5 3.5 5.61929 3.5 7H4.5C4.5 6.17157 5.17157 5.5 6 5.5V4.5ZM20.5 19V11H19.5V19H20.5ZM20.5 11V7H19.5V11H20.5ZM18 21.5C19.3807 21.5 20.5 20.3807 20.5 19H19.5C19.5 19.8284 18.8284 20.5 18 20.5V21.5ZM18 5.5C18.8284 5.5 19.5 6.17157 19.5 7H20.5C20.5 5.61929 19.3807 4.5 18 4.5V5.5ZM18 4.5H6V5.5H18V4.5ZM18 20.5H6V21.5H18V20.5ZM14.5 3V7H15.5V3H14.5ZM8.5 3V7H9.5V3H8.5Z" fill="#C4C4C4"/>
</svg>
