<?xml version="1.0" encoding="UTF-8"?>
<!-- Generator: Adobe Illustrator 16.0.0, SVG Export Plug-In . SVG Version: 6.00 Build 0)  -->
<svg xmlns="http://www.w3.org/2000/svg" xmlns:xlink="http://www.w3.org/1999/xlink" version="1.1" id="Layer_1" x="0px" y="0px" width="512px" height="512px" viewBox="0 0 512 512" xml:space="preserve">
<path fill="#515967" d="M512,192c0.146-35.346-28.389-64.118-63.735-64.265c-35.346-0.146-64.118,28.389-64.264,63.735  c-0.113,27.219,17.003,51.531,42.665,60.604v89.259c0,70.691-57.308,127.999-128,127.999s-128-57.308-128-127.999v-1.707  c73.379-10.646,127.858-73.48,128-147.627V64c0-35.346-28.653-64-64-64h-64v42.667h64C246.448,42.667,256,52.218,256,64v128  c0,58.91-47.757,106.666-106.667,106.666S42.666,250.91,42.666,192V64c0-11.782,9.552-21.333,21.334-21.333h64V0H64  C28.654,0,0,28.654,0,64v128c0.142,74.146,54.621,136.98,128,147.627v1.707C128,435.59,204.41,512,298.666,512  c94.257,0,170.667-76.41,170.667-170.666v-89.259C494.813,243.066,511.888,219.025,512,192z M448,213.333  c-11.782,0-21.334-9.551-21.334-21.333s9.552-21.333,21.334-21.333c11.781,0,21.333,9.551,21.333,21.333  S459.781,213.333,448,213.333z"></path>
</svg>
