<?xml version="1.0" encoding="UTF-8"?>
<!-- Generator: Adobe Illustrator 16.0.0, SVG Export Plug-In . SVG Version: 6.00 Build 0)  -->
<svg xmlns="http://www.w3.org/2000/svg" xmlns:xlink="http://www.w3.org/1999/xlink" version="1.1" id="Layer_1" x="0px" y="0px" width="512px" height="512px" viewBox="0 0 512 512" xml:space="preserve">
<path fill="#515967" d="M341.333,448h10.453c53.333,0,98.773-39.894,105.813-92.587L462.293,320h7.04  C497.067,320,512,298.027,512,277.334c0-30.294-62.507-149.547-89.601-183.041C370.346,24.747,287.786-9.6,201.6,2.347  C95.147,16.854,10.666,105.6,1.067,212.907C-4.266,272,12.586,330.24,48.213,376.96C58.453,390.187,64,408.106,64,427.094v20.693  c0,35.199,28.8,64,64,64h149.333c35.2,0,64-28.801,64-64V448z M388.693,120.533c27.947,34.56,77.867,137.6,80.641,156.801h-25.601  c-10.666,0-19.84,7.893-21.119,18.56l-7.04,53.76c-4.267,31.786-31.573,55.681-63.36,55.681h-31.787  c-11.732,0-21.333,9.6-21.333,21.333V448c0,11.733-9.6,21.333-21.333,21.333H128c-11.733,0-21.334-9.6-21.334-21.333v-20.693  c0-28.373-8.746-55.467-24.533-76.16c-29.227-38.187-43.093-85.973-38.613-134.4c7.894-87.893,76.8-160.213,164.054-172.16  c9.173-1.28,18.347-1.92,27.307-1.92c60.373,0,116.479,27.733,154.026,77.867H388.693z"></path>
</svg>
